<svg width="463" height="463" viewBox="0 0 463 463" fill="none" xmlns="http://www.w3.org/2000/svg">
<rect width="463" height="463" rx="74" fill="#FACC15"/>
<path d="M152.481 373.09C138.161 373.09 125.882 371.118 115.644 367.175C105.475 363.301 97.3812 358.009 91.3627 351.299C85.3443 344.589 81.4358 337.048 79.6371 328.678L120.521 323.178C121.766 326.36 123.738 329.335 126.436 332.102C129.134 334.869 132.696 337.083 137.124 338.743C141.62 340.473 147.085 341.337 153.519 341.337C163.134 341.337 171.055 338.985 177.281 334.281C183.576 329.646 186.724 321.864 186.724 310.934V281.776H184.856C182.919 286.203 180.014 290.388 176.14 294.331C172.266 298.274 167.285 301.491 161.197 303.982C155.11 306.472 147.846 307.717 139.407 307.717C127.439 307.717 116.543 304.95 106.72 299.416C96.9661 293.812 89.1836 285.269 83.3727 273.786C77.631 262.233 74.7601 247.636 74.7601 229.996C74.7601 211.941 77.7002 196.86 83.5803 184.754C89.4604 172.648 97.2774 163.586 107.031 157.567C116.855 151.549 127.612 148.54 139.303 148.54C148.227 148.54 155.698 150.062 161.716 153.105C167.735 156.08 172.577 159.816 176.244 164.312C179.979 168.739 182.85 173.098 184.856 177.387H186.516V150.615H230.41V311.556C230.41 325.115 227.089 336.46 220.448 345.592C213.807 354.723 204.606 361.572 192.846 366.138C181.155 370.772 167.7 373.09 152.481 373.09ZM153.415 274.512C160.54 274.512 166.559 272.748 171.47 269.22C176.451 265.623 180.256 260.503 182.885 253.862C185.583 247.152 186.932 239.128 186.932 229.789C186.932 220.45 185.617 212.356 182.988 205.507C180.36 198.59 176.555 193.228 171.574 189.424C166.593 185.619 160.54 183.716 153.415 183.716C146.151 183.716 140.029 185.688 135.048 189.631C130.068 193.505 126.297 198.901 123.738 205.819C121.178 212.736 119.898 220.726 119.898 229.789C119.898 238.989 121.178 246.945 123.738 253.655C126.367 260.296 130.137 265.45 135.048 269.116C140.029 272.713 146.151 274.512 153.415 274.512ZM318.12 313.113C301.794 313.113 287.751 309.654 275.991 302.736C264.3 295.749 255.307 286.065 249.011 273.682C242.785 261.299 239.672 247.048 239.672 230.93C239.672 214.604 242.82 200.284 249.115 187.971C255.48 175.588 264.507 165.938 276.198 159.02C287.889 152.033 301.794 148.54 317.912 148.54C331.817 148.54 343.992 151.065 354.438 156.115C364.884 161.165 373.151 168.255 379.238 177.387C385.326 186.518 388.681 197.241 389.303 209.554H347.589C346.413 201.599 343.3 195.2 338.25 190.357C333.27 185.446 326.732 182.99 318.639 182.99C311.79 182.99 305.806 184.858 300.687 188.593C295.637 192.26 291.694 197.621 288.858 204.677C286.021 211.733 284.603 220.277 284.603 230.307C284.603 240.477 285.987 249.124 288.754 256.249C291.59 263.374 295.568 268.805 300.687 272.54C305.806 276.276 311.79 278.144 318.639 278.144C323.689 278.144 328.22 277.106 332.232 275.031C336.313 272.955 339.669 269.946 342.297 266.003C344.995 261.991 346.759 257.183 347.589 251.58H389.303C388.612 263.755 385.291 274.477 379.342 283.747C373.462 292.948 365.333 300.142 354.957 305.331C344.58 310.519 332.301 313.113 318.12 313.113Z" fill="#020617"/>
</svg>
