<svg width="1289" height="277" viewBox="0 0 1289 277" fill="none" xmlns="http://www.w3.org/2000/svg">
<path d="M77.9278 276.09C63.608 276.09 51.329 274.118 41.0907 270.175C30.9216 266.301 22.8278 261.009 16.8094 254.299C10.791 247.589 6.88243 240.048 5.08381 231.678L45.9677 226.178C47.2129 229.36 49.1845 232.335 51.8824 235.102C54.5803 237.869 58.143 240.083 62.5704 241.743C67.0669 243.473 72.5319 244.337 78.9654 244.337C88.5811 244.337 96.5019 241.985 102.728 237.281C109.023 232.646 112.171 224.864 112.171 213.934V184.776H110.303C108.366 189.203 105.46 193.388 101.586 197.331C97.7125 201.274 92.7318 204.491 86.6441 206.982C80.5565 209.472 73.2929 210.717 64.8532 210.717C52.8855 210.717 41.99 207.95 32.1668 202.416C22.4128 196.812 14.6303 188.269 8.8194 176.786C3.07766 165.233 0.206795 150.636 0.206795 132.996C0.206795 114.941 3.14684 99.8601 9.02693 87.7541C14.907 75.648 22.7241 66.5857 32.4781 60.5673C42.3013 54.5488 53.0584 51.5396 64.7494 51.5396C73.6733 51.5396 81.1445 53.0615 87.163 56.1053C93.1814 59.08 98.0238 62.8156 101.69 67.3121C105.426 71.7395 108.297 76.0976 110.303 80.3866H111.963V53.6149H155.856V214.556C155.856 228.115 152.536 239.46 145.895 248.592C139.254 257.723 130.053 264.572 118.293 269.138C106.602 273.772 93.1468 276.09 77.9278 276.09ZM78.8617 177.512C85.9869 177.512 92.0054 175.748 96.917 172.22C101.898 168.623 105.703 163.503 108.331 156.862C111.029 150.152 112.378 142.128 112.378 132.789C112.378 123.45 111.064 115.356 108.435 108.507C105.806 101.59 102.002 96.2283 97.0208 92.4235C92.04 88.6188 85.9869 86.7164 78.8617 86.7164C71.598 86.7164 65.4758 88.688 60.495 92.6311C55.5142 96.505 51.7441 101.901 49.1845 108.819C46.6249 115.736 45.3451 123.726 45.3451 132.789C45.3451 141.989 46.6249 149.945 49.1845 156.655C51.8132 163.296 55.5834 168.45 60.495 172.116C65.4758 175.713 71.598 177.512 78.8617 177.512ZM243.566 216.113C227.241 216.113 213.198 212.654 201.437 205.736C189.746 198.749 180.753 189.065 174.458 176.682C168.232 164.299 165.119 150.048 165.119 133.93C165.119 117.604 168.267 103.284 174.562 90.9708C180.926 78.588 189.954 68.9378 201.645 62.02C213.336 55.0331 227.241 51.5396 243.359 51.5396C257.264 51.5396 269.439 54.0646 279.885 59.1145C290.33 64.1645 298.597 71.2552 304.685 80.3866C310.772 89.5181 314.128 100.241 314.75 112.554H273.036C271.86 104.599 268.747 98.1999 263.697 93.3574C258.716 88.4458 252.179 85.99 244.085 85.99C237.237 85.99 231.253 87.8578 226.134 91.5934C221.084 95.2598 217.141 100.621 214.304 107.677C211.468 114.733 210.05 123.277 210.05 133.307C210.05 143.477 211.433 152.124 214.201 159.249C217.037 166.374 221.015 171.805 226.134 175.54C231.253 179.276 237.237 181.144 244.085 181.144C249.135 181.144 253.666 180.106 257.679 178.031C261.76 175.955 265.115 172.946 267.744 169.003C270.442 164.991 272.206 160.183 273.036 154.58H314.75C314.058 166.755 310.738 177.477 304.789 186.747C298.909 195.948 290.78 203.142 280.404 208.331C270.027 213.519 257.748 216.113 243.566 216.113ZM520.315 53.6149L464.592 213H414.784L359.062 53.6149H405.757L438.858 167.654H440.518L473.516 53.6149H520.315ZM590.955 216.113C574.56 216.113 560.448 212.792 548.619 206.151C536.859 199.441 527.796 189.964 521.432 177.719C515.068 165.406 511.885 150.844 511.885 134.034C511.885 117.639 515.068 103.25 521.432 90.8671C527.796 78.4843 536.755 68.834 548.307 61.9162C559.929 54.9985 573.557 51.5396 589.191 51.5396C599.706 51.5396 609.495 53.2345 618.557 56.6242C627.689 59.9447 635.644 64.9601 642.423 71.6703C649.272 78.3805 654.599 86.8202 658.403 96.9893C662.208 107.089 664.111 118.919 664.111 132.477V144.618H529.526V117.224H622.5C622.5 110.859 621.117 105.221 618.35 100.31C615.583 95.3982 611.743 91.5588 606.832 88.7917C601.989 85.9554 596.351 84.5373 589.918 84.5373C583.207 84.5373 577.258 86.0938 572.07 89.2068C566.951 92.2506 562.938 96.3667 560.033 101.555C557.128 106.674 555.64 112.381 555.571 118.676V144.722C555.571 152.608 557.024 159.422 559.929 165.164C562.904 170.905 567.089 175.333 572.485 178.446C577.881 181.559 584.28 183.115 591.682 183.115C596.593 183.115 601.09 182.424 605.171 181.04C609.253 179.656 612.746 177.581 615.652 174.814C618.557 172.047 620.771 168.657 622.293 164.645L663.177 167.343C661.101 177.166 656.847 185.744 650.413 193.077C644.049 200.341 635.817 206.013 625.717 210.095C615.686 214.107 604.099 216.113 590.955 216.113ZM717.682 120.856V213H673.477V53.6149H715.606V81.7356H717.474C721.002 72.4658 726.917 65.133 735.218 59.7371C743.519 54.2721 753.585 51.5396 765.414 51.5396C776.483 51.5396 786.133 53.9608 794.365 58.8033C802.597 63.6457 808.996 70.5634 813.562 79.5565C818.127 88.4804 820.41 99.1338 820.41 111.517V213H776.206V119.403C776.275 109.649 773.785 102.039 768.735 96.5742C763.685 91.04 756.732 88.2729 747.878 88.2729C741.928 88.2729 736.671 89.5527 732.105 92.1122C727.609 94.6718 724.081 98.4074 721.521 103.319C719.031 108.161 717.751 114.007 717.682 120.856ZM894.501 215.594C882.395 215.594 871.43 212.481 861.607 206.255C851.853 199.96 844.105 190.725 838.364 178.55C832.691 166.305 829.855 151.294 829.855 133.515C829.855 115.252 832.795 100.068 838.675 87.9616C844.555 75.7863 852.372 66.6895 862.126 60.6711C871.949 54.5834 882.706 51.5396 894.397 51.5396C903.321 51.5396 910.758 53.0615 916.707 56.1053C922.726 59.08 927.568 62.8156 931.234 67.3121C934.97 71.7395 937.806 76.0976 939.743 80.3866H941.092V0.486588H985.193V213H941.611V187.473H939.743C937.668 191.901 934.728 196.294 930.923 200.652C927.188 204.941 922.311 208.503 916.292 211.34C910.343 214.176 903.079 215.594 894.501 215.594ZM908.51 180.417C915.635 180.417 921.653 178.48 926.565 174.606C931.546 170.663 935.35 165.164 937.979 158.108C940.677 151.052 942.026 142.785 942.026 133.307C942.026 123.83 940.712 115.598 938.083 108.611C935.454 101.624 931.649 96.2283 926.669 92.4235C921.688 88.6188 915.635 86.7164 908.51 86.7164C901.246 86.7164 895.124 88.688 890.143 92.6311C885.162 96.5742 881.392 102.039 878.832 109.026C876.273 116.013 874.993 124.107 874.993 133.307C874.993 142.577 876.273 150.775 878.832 157.9C881.461 164.956 885.231 170.49 890.143 174.503C895.124 178.446 901.246 180.417 908.51 180.417ZM1047.51 216.009C1037.34 216.009 1028.28 214.245 1020.32 210.717C1012.36 207.12 1006.07 201.828 1001.43 194.841C996.868 187.785 994.586 178.999 994.586 168.484C994.586 159.63 996.211 152.193 999.463 146.174C1002.71 140.156 1007.14 135.314 1012.74 131.647C1018.35 127.981 1024.71 125.214 1031.84 123.346C1039.03 121.478 1046.57 120.164 1054.46 119.403C1063.73 118.434 1071.2 117.535 1076.87 116.705C1082.54 115.806 1086.66 114.491 1089.22 112.762C1091.78 111.032 1093.06 108.473 1093.06 105.083V104.46C1093.06 97.8886 1090.98 92.804 1086.83 89.2068C1082.75 85.6096 1076.94 83.8109 1069.4 83.8109C1061.45 83.8109 1055.12 85.575 1050.41 89.103C1045.71 92.5619 1042.59 96.9201 1041.07 102.178L1000.19 98.8571C1002.26 89.1722 1006.35 80.8017 1012.43 73.7456C1018.52 66.6203 1026.37 61.1553 1035.99 57.3505C1045.67 53.4766 1056.88 51.5396 1069.61 51.5396C1078.46 51.5396 1086.94 52.5773 1095.03 54.6526C1103.19 56.7279 1110.42 59.9447 1116.72 64.3029C1123.08 68.6611 1128.1 74.2644 1131.76 81.113C1135.43 87.8924 1137.26 96.0208 1137.26 105.498V213H1095.34V190.898H1094.1C1091.54 195.879 1088.11 200.271 1083.82 204.076C1079.54 207.812 1074.38 210.752 1068.36 212.896C1062.34 214.972 1055.39 216.009 1047.51 216.009ZM1060.17 185.502C1066.67 185.502 1072.41 184.222 1077.39 181.663C1082.37 179.034 1086.28 175.506 1089.12 171.078C1091.95 166.651 1093.37 161.636 1093.37 156.032V139.118C1091.99 140.018 1090.09 140.848 1087.66 141.609C1085.31 142.301 1082.65 142.958 1079.67 143.58C1076.7 144.134 1073.72 144.653 1070.75 145.137C1067.78 145.552 1065.08 145.932 1062.66 146.278C1057.47 147.039 1052.94 148.25 1049.06 149.91C1045.19 151.57 1042.18 153.819 1040.04 156.655C1037.89 159.422 1036.82 162.881 1036.82 167.032C1036.82 173.05 1039 177.65 1043.36 180.832C1047.78 183.945 1053.39 185.502 1060.17 185.502ZM1284.69 99.0646L1244.22 101.555C1243.53 98.0961 1242.04 94.9831 1239.76 92.216C1237.48 89.3797 1234.47 87.1315 1230.73 85.4712C1227.07 83.7418 1222.67 82.877 1217.56 82.877C1210.71 82.877 1204.93 84.3298 1200.23 87.2352C1195.52 90.0715 1193.17 93.8763 1193.17 98.6495C1193.17 102.454 1194.69 105.671 1197.74 108.3C1200.78 110.929 1206 113.038 1213.4 114.63L1242.25 120.44C1257.75 123.623 1269.3 128.742 1276.91 135.798C1284.52 142.854 1288.32 152.124 1288.32 163.607C1288.32 174.053 1285.25 183.219 1279.09 191.105C1273 198.992 1264.63 205.148 1253.98 209.576C1243.39 213.934 1231.18 216.113 1217.35 216.113C1196.25 216.113 1179.44 211.72 1166.92 202.935C1154.47 194.08 1147.17 182.043 1145.02 166.824L1188.5 164.541C1189.81 170.975 1193 175.886 1198.05 179.276C1203.1 182.596 1209.57 184.257 1217.45 184.257C1225.2 184.257 1231.43 182.769 1236.13 179.795C1240.9 176.751 1243.32 172.842 1243.39 168.069C1243.32 164.057 1241.63 160.771 1238.31 158.211C1234.99 155.583 1229.87 153.576 1222.95 152.193L1195.35 146.693C1179.78 143.58 1168.2 138.184 1160.59 130.506C1153.05 122.827 1149.28 113.038 1149.28 101.14C1149.28 90.9016 1152.04 82.0815 1157.58 74.6795C1163.18 67.2775 1171.03 61.5704 1181.13 57.5581C1191.3 53.5458 1203.2 51.5396 1216.83 51.5396C1236.96 51.5396 1252.8 55.794 1264.35 64.3029C1275.98 72.8117 1282.76 84.3989 1284.69 99.0646Z" fill="#FACC15"/>
</svg>
